<?xml version="1.0" encoding="UTF-8"?>
<svg width="752pt" height="752pt" version="1.1" viewBox="0 0 752 752" xmlns="http://www.w3.org/2000/svg">
 <defs>
  <clipPath id="a">
   <path d="m139.21 139.21h472.79v472.79h-472.79z"/>
  </clipPath>
 </defs>
 <g clip-path="url(#a)">
  <path d="m375.35 139.21c-130.42 0-236.14 105.72-236.14 236.14 0 130.42 105.72 236.14 236.14 236.14 130.42 0 236.14-105.72 236.14-236.14 0.003906-130.42-105.73-236.14-236.14-236.14zm-3.5781 46.898c16.918 0 30.613 13.691 30.613 30.5 0 16.918-13.695 30.609-30.613 30.609-16.797 0-30.488-13.695-30.5-30.609 0-16.809 13.691-30.5 30.5-30.5zm132.33 98.625-90.852 11.48 0.039063 90.945 44.016 146.93c2.3242 9.2773-3.2539 18.559-12.43 20.852-9.1719 2.293-18.555-2.7617-20.867-12.039l-45.094-133.75h-13.887l-41.48 136.52c-3.4727 8.9062-13.395 13.004-22.293 9.5312-8.8125-3.4375-14.191-13.469-10.719-22.375l38.105-144.19v-92.434l-83.699-11.391c-8.5898-0.69141-14.426-8.2539-13.723-16.844 0.62891-8.6562 8.4453-15.082 17.031-14.391l101.69 8.7578h44.598l108.29-8.9258c8.6055-0.34766 15.898 6.3477 16.188 15.016 0.34375 8.6094-6.3008 15.945-14.91 16.301z"/>
 </g>
</svg>
